<svg width="283" height="223" viewBox="0 0 283 223" fill="none" xmlns="http://www.w3.org/2000/svg">
<path d="M140.273 -0.00377352C140.193 1.47603 140.5 2.81726 141.557 3.94072C143.76 6.28168 146.601 7.50908 149.55 8.50386C156.313 10.7805 163.333 11.5526 170.408 11.9881C181.311 12.6612 192.199 12.2603 203.087 11.5625C209.613 11.1418 216.144 11.2704 222.675 11.7109C229.394 12.1663 236.058 12.9878 242.653 14.3142C245.168 14.819 247.757 15.1605 250.084 16.4473C252.736 17.9172 254.559 19.981 255.118 23.0247C255.197 23.4504 255.36 23.6087 255.785 23.6681C261.57 24.4749 264.628 28.36 266.455 33.4378C268.614 39.4263 269.029 45.7068 269.41 52.0071C269.83 59.03 269.148 66.0331 269.247 73.0461C269.321 78.5347 269.573 84.0035 270.348 89.4278C271.124 94.8719 272.171 100.286 274.967 105.151C276.346 107.547 278.095 109.576 280.817 110.531C281.533 110.784 282.254 110.902 283.005 110.769V111.952C279.824 111.62 277.724 113.372 276 115.708C274.083 118.301 272.967 121.286 272.156 124.379C269.192 135.717 269.098 147.299 269.489 158.894C269.662 164.061 270.003 169.223 269.686 174.38C269.341 180.003 268.609 185.585 266.475 190.866C265.112 194.246 263.234 197.236 259.86 199.008C258.754 199.587 257.573 199.809 256.372 199.997C255.854 200.077 255.493 200.23 255.375 200.804C254.604 204.605 251.818 206.491 248.547 207.812C243.464 209.871 238.104 210.297 232.694 210.262C223.401 210.198 214.109 210.143 204.816 209.955C193.321 209.727 181.825 209.638 170.329 209.901C166.085 210 161.817 209.985 157.608 210.678C153.33 211.385 149.14 212.4 145.509 214.949C143.237 216.547 141.656 218.626 141.221 221.447C141.127 222.046 140.781 222.506 140.47 222.991C140.09 221.739 140.534 220.423 140.001 219.19C138.702 216.181 136.251 214.399 133.445 213.043C129.182 210.985 124.597 210.138 119.929 209.713C109.9 208.792 99.8616 209.574 89.828 209.574C78.7225 209.574 67.6169 209.797 56.5162 209.465C51.6847 209.322 46.8284 209.341 42.0167 208.713C37.5063 208.124 32.9514 207.644 28.7868 205.6C26.9095 204.679 25.2101 203.531 25.2842 201.047C25.299 200.571 24.9186 200.398 24.4987 200.309C19.4448 199.22 16.5054 195.761 14.5343 191.282C12.163 185.892 11.7925 180.146 11.9061 174.38C12.1185 163.458 12.2272 152.535 12.0148 141.612C11.9357 137.445 11.9011 133.248 11.17 129.12C10.429 124.933 9.53972 120.781 7.1042 117.163C5.53815 114.837 3.54725 113.199 0.612762 113.016C0.400333 113.001 -0.00970504 113.149 0.000175379 112.704C0.00511559 112.456 0.207664 112.323 0.469495 112.244C4.52541 111.016 6.98563 108.027 8.86786 104.463C11.2194 100.014 12.1729 95.159 12.0839 90.2098C11.8468 76.3274 11.5652 62.4499 11.7085 48.5674C11.7628 43.5242 12.079 38.486 13.5808 33.611C14.5936 30.3297 15.9916 27.2761 18.852 25.1578C20.3489 24.0492 22.0582 23.5246 23.9256 23.5593C24.4443 23.5692 24.8396 23.5197 24.8939 22.8466C25.1508 19.7434 27.1862 17.9518 29.681 16.5908C32.1906 15.2248 34.9423 14.6359 37.7483 14.1509C49.9655 12.0227 62.2864 12.1465 74.6023 12.5127C82.724 12.7552 90.821 12.4137 98.923 12.1415C104.5 11.9534 110.083 11.4932 115.626 10.8003C121.193 10.1074 126.756 9.29573 132.111 7.51402C133.821 6.94487 135.476 6.22724 137.002 5.2374C138.909 4.00011 139.917 2.29759 139.798 -0.0136719H140.273V-0.00377352Z" fill="#F84A1D"/>
<path d="M63.9936 13.4846C68.1829 13.4846 71.3002 13.3509 74.4026 13.5242C77.1939 13.6776 79.9801 13.7469 82.7664 13.6924C88.3834 13.5836 94.0005 13.4549 99.6125 13.2124C105.17 12.9748 110.708 12.4057 116.231 11.7573C120.189 11.2921 124.126 10.5794 128.019 9.66381C131.739 8.78781 135.311 7.6198 138.423 5.30854C138.581 5.18976 138.828 5.13037 138.902 4.97694C139.737 3.32392 140.384 4.25436 141.209 5.04128C143.531 7.26346 146.401 8.48096 149.41 9.49059C152.73 10.6042 156.129 11.3267 159.562 11.886C162.106 12.3017 164.705 12.4007 167.254 12.8065C169.324 13.1381 171.414 13.1035 173.469 13.1579C179.945 13.3312 186.432 13.3262 192.913 13.2124C197.537 13.1332 202.161 12.8709 206.771 12.4947C210.471 12.1928 214.176 12.1532 217.852 12.3859C222.179 12.6581 226.522 12.9402 230.839 13.4499C235.938 14.0537 240.996 14.8357 245.981 16.073C248.995 16.8253 251.603 18.2011 253.298 20.9628C253.846 21.8536 253.94 22.888 254.315 23.8333C254.518 24.348 254.755 24.5658 255.313 24.6252C259.344 25.0557 262.16 27.2334 264.082 30.7424C265.964 34.182 266.799 37.9236 267.377 41.7444C267.93 45.3919 268.326 49.0593 268.331 52.7563C268.336 57.2551 268.345 61.7489 268.316 66.2477C268.306 67.777 268.074 69.3113 268.118 70.8356C268.321 77.8189 268.484 84.8022 269.694 91.7162C270.401 95.7547 271.315 99.7141 272.886 103.505C274.101 106.435 276.018 108.835 278.601 110.662C279.234 111.107 279.085 111.325 278.631 111.671C277.762 112.339 276.857 112.943 276.062 113.725C275.02 114.755 274.397 116.017 273.661 117.244C271.186 121.406 270.366 126.098 269.635 130.721C269.022 134.606 268.578 138.555 268.494 142.539C268.395 147.028 268.153 151.527 268.38 156.001C268.652 161.361 268.484 166.716 268.553 172.071C268.622 177.441 267.896 182.717 266.32 187.854C265.431 190.759 264.364 193.62 262.155 195.822C260.436 197.539 258.514 198.925 255.871 198.816C254.958 198.777 254.439 199.108 254.296 200.306C253.96 203.142 251.924 204.8 249.548 206.062C246.984 207.428 244.203 208.086 241.352 208.472C236.95 209.066 232.519 209.432 228.088 209.15C224.98 208.952 221.883 209.056 218.78 208.952C203.55 208.447 188.314 208.848 173.083 208.72C168.212 208.68 163.356 209.086 158.515 209.482C153.945 209.858 149.538 211.08 145.621 213.565C143.916 214.644 142.345 216 141.333 217.851C141.204 218.088 141.046 218.376 140.73 218.331C140.419 218.291 140.557 217.94 140.443 217.762C139.584 216.406 138.62 215.134 137.301 214.184C133.448 211.407 129.031 210.071 124.447 209.22C119.289 208.264 114.073 208.2 108.841 208.245C102.147 208.299 95.4479 208.106 88.754 208.304C78.7204 208.601 68.6868 208.462 58.6483 208.462C54.291 208.462 49.9338 208.245 45.5864 207.982C42.8149 207.814 40.0286 207.562 37.3115 207.022C34.3672 206.438 31.3783 205.854 28.681 204.369C27.1248 203.513 25.9589 202.479 26.2998 200.474C26.3838 199.984 26.3443 199.613 25.6378 199.504C21.4386 198.846 18.4103 196.525 16.3502 192.833C14.2704 189.111 13.5145 185.048 13.0551 180.876C12.7834 178.396 13.0057 175.936 13.0205 173.462C13.0996 163.009 13.1687 152.556 13.0205 142.104C12.9266 135.947 12.6747 129.765 10.9555 123.772C10.0811 120.728 9.02882 117.784 6.97369 115.289C6.12891 114.265 5.19027 113.364 3.9898 112.859C3.0314 112.453 3.34263 112.107 3.87618 111.706C5.23474 110.686 6.45991 109.548 7.50723 108.192C9.07822 106.153 10.4961 104.01 11.1383 101.501C11.9929 98.16 12.9662 94.854 12.9019 91.3153C12.7784 84.5349 13.0254 77.7397 12.7933 70.9643C12.5215 62.9615 12.6994 54.9636 12.6401 46.9608C12.6006 41.6157 13.3663 36.3646 15.3177 31.3758C16.4885 28.3865 18.3115 25.8229 21.6066 24.7934C22.5798 24.4915 23.6024 24.348 24.6201 24.3777C25.4007 24.3975 25.6329 24.3332 25.702 23.3532C25.9046 20.3491 27.8214 18.4931 30.4002 17.2113C34.0856 15.3801 38.1168 14.9743 42.0986 14.4299C45.868 13.9102 49.6868 13.93 53.4759 13.638C57.3342 13.3411 61.1826 13.6034 63.959 13.4697L63.9936 13.4846Z" fill="#FE890A"/>
<path d="M140.723 216.87C141.064 213.772 138.979 212.153 137.027 210.441C133.307 207.174 128.703 206.224 124.04 205.442C119.998 204.764 115.923 204.68 111.832 204.7C103.049 204.739 94.2649 204.576 85.4862 204.774C78.0907 204.942 70.6952 204.947 63.2997 204.912C59.2191 204.893 55.1384 204.586 51.0628 204.418C46.4881 204.229 41.9234 203.695 37.4673 202.562C34.8144 201.889 32.1615 201.146 30.304 198.865C29.8149 198.266 29.642 197.637 29.6717 196.9C29.6914 196.43 29.5877 196.073 29.0195 195.954C24.1831 194.955 21.2387 191.733 19.3318 187.432C17.5583 183.423 16.9457 179.127 16.9259 174.782C16.8716 162.122 16.9951 149.457 16.8567 136.797C16.7975 131.491 16.091 126.211 14.278 121.167C13.3294 118.525 11.9709 116.104 9.73296 114.288C8.61647 113.387 7.32708 112.917 5.82031 112.769C6.28469 111.987 7.08501 112.011 7.64819 111.635C12.8453 108.171 15.3006 103.024 16.4121 97.1243C17.41 91.8188 16.8765 86.4341 16.8469 81.089C16.837 79.0945 16.7184 77.0802 16.7036 75.0758C16.6641 68.4191 16.3133 61.7625 16.4566 55.1009C16.5554 50.4635 16.6542 45.8212 17.4397 41.2481C18.0128 37.8827 18.9218 34.5964 20.9769 31.7309C22.7208 29.2959 25.0526 27.9843 27.992 27.7072C28.6095 27.6478 29.064 27.4746 29.1974 26.8163C29.7803 23.8815 31.7416 22.0998 34.2907 20.9169C37.8576 19.2639 41.7406 18.7888 45.5693 18.2394C49.719 17.6406 53.9034 17.403 58.0976 17.1951C62.0745 16.9972 66.0464 16.9427 70.0085 17.0862C77.1224 17.3436 84.2313 17.5861 91.3453 17.4921C96.6362 17.4228 101.912 17.0318 107.193 16.6062C112.153 16.2102 117.099 15.6906 121.989 14.8443C127.182 13.9435 132.438 13.1022 137.097 10.3306C138.134 9.71197 139.023 8.97949 139.384 7.75705C139.458 7.50464 139.532 7.1681 139.863 7.1483C140.352 7.11365 140.179 7.58383 140.322 7.82139C141.261 9.36058 141.953 10.9691 143.86 11.8352C146.947 13.2358 150.05 14.5275 153.355 15.2748C156.709 16.0321 160.108 16.4923 163.541 16.8338C169.811 17.4574 176.085 17.6208 182.369 17.4723C187.151 17.3585 191.943 17.2149 196.695 16.7398C203.572 16.0519 210.449 16.2399 217.316 16.3983C222.503 16.5171 227.685 17.1308 232.838 17.9227C236.632 18.5067 240.411 19.1501 244.102 20.1696C246.473 20.8229 248.597 22.0107 249.867 24.4209C250.301 25.2474 250.845 25.9898 250.973 26.9302C251.087 27.7666 251.69 28.019 252.376 28.1081C255.617 28.5287 258.137 30.2016 259.876 32.8642C261.501 35.3487 262.553 38.1203 263.195 41.0601C263.773 43.7079 264.109 46.3804 264.5 49.053C264.677 50.2606 264.643 51.4731 264.776 52.6857C265.231 56.838 265.236 61.0349 264.989 65.1922C264.821 68.0529 264.771 70.9283 264.687 73.7791C264.594 76.8575 265.122 79.9655 265.043 83.0687C264.974 85.6868 265.582 88.2109 265.878 90.7795C266.234 93.9024 266.994 96.9511 267.918 99.9503C269.005 103.489 270.64 106.726 273.53 109.136C274.844 110.23 276.371 111.051 278.451 111.017C277.823 111.68 277.32 112.011 276.742 111.927C275.403 111.734 274.484 112.462 273.595 113.244C271.535 115.055 269.875 117.154 268.941 119.792C267.819 122.949 266.787 126.102 266.347 129.467C266.031 131.868 265.809 134.288 265.458 136.668C264.89 140.494 264.776 144.339 264.905 148.145C265.176 155.95 265.018 163.75 265.038 171.55C265.048 174.96 264.411 178.321 263.689 181.661C262.929 185.185 261.822 188.57 259.619 191.456C258.008 193.559 255.923 195.078 253.211 195.514C252.184 195.677 251.522 196.014 251.161 197.202C250.079 200.74 247.179 202.428 243.934 203.507C239.122 205.105 234.147 205.586 229.083 205.467C224.321 205.353 219.549 205.581 214.791 205.397C207.593 205.12 200.386 205.427 193.198 205.145C185.407 204.843 177.616 204.942 169.835 205.031C165.266 205.081 160.647 205.12 156.121 205.952C153.212 206.486 150.233 206.976 147.599 208.436C144.512 210.149 141.814 212.262 141.232 216.098C141.202 216.286 141.123 216.474 141.044 216.652C141.019 216.711 140.93 216.736 140.752 216.865L140.723 216.87Z" fill="#F84A1D"/>
<path d="M272.062 111.21C270.882 111.656 269.894 111.997 268.925 112.393C262.592 114.987 257.044 118.837 251.709 123.069C245.247 128.191 239.343 133.947 233.025 139.223C226.178 144.944 218.664 149.586 210.063 152.259C206.155 153.471 202.163 153.991 198.068 153.833C196.571 153.778 195.385 153.021 194.392 152.165C191.171 149.378 187.674 146.958 184.299 144.38C175.629 137.763 166.905 131.215 158.2 124.637C152.924 120.648 147.658 116.645 142.362 112.685C141.576 112.096 141.626 111.849 142.377 111.28C154.89 101.787 167.394 92.2748 179.878 82.7426C182.407 80.8125 184.897 78.8229 187.432 76.9175C190.425 74.6656 193.281 72.2306 196.398 70.142C196.862 69.8302 197.342 69.6075 197.929 69.6075C203.329 69.5976 208.635 70.3004 213.674 72.2652C220.566 74.9526 226.894 78.7091 232.941 82.9555C237.441 86.113 241.734 89.5379 245.667 93.3784C247.569 95.2344 249.461 97.125 251.417 98.9067C254.297 101.525 257.474 103.821 260.789 105.895C264.168 108.013 267.651 109.904 271.568 110.854C271.672 110.879 271.751 110.983 272.062 111.205V111.21Z" fill="#FEFAD7"/>
<path d="M139.981 9.78125C141.656 13.2209 143.627 16.1805 145.924 18.8531C147.984 21.2485 150.049 23.6934 152.573 25.6483C155.177 27.6577 157.617 29.8749 160.325 31.7457C163.615 34.0223 166.925 36.2742 170.17 38.6053C174.128 41.4461 178.095 44.2671 181.829 47.4197C184.324 49.5231 186.977 51.4434 189.264 53.7893C190.751 55.3137 191.744 57.1845 193.004 58.8721C194.19 60.4608 194.783 62.3069 195.519 64.0836C196.032 65.3209 196.2 66.7067 196.522 68.0232C196.709 68.7952 196.176 69.1813 195.672 69.5624C193.192 71.4529 190.702 73.3237 188.227 75.2242C185.045 77.6691 181.81 80.0447 178.608 82.4599C175.852 84.5336 173.07 86.6222 170.363 88.7355C164.42 93.3728 158.344 97.842 152.415 102.494C148.804 105.33 145.089 108.032 141.443 110.824C140.875 111.259 140.47 111.289 139.897 110.843C137.091 108.681 134.26 106.548 131.429 104.41C123.056 98.0944 114.672 91.7941 106.298 85.474C101.773 82.059 97.2974 78.5798 92.7376 75.2143C91.0184 73.9424 89.2646 72.7199 87.5998 71.3738C86.8884 70.7997 86.4783 70.2057 86.5228 69.2901C86.6858 65.7762 87.9406 62.6484 89.8772 59.7679C94.2444 53.2796 100.513 48.8946 106.709 44.4057C110.873 41.3916 114.909 38.1945 119.005 35.0864C123.441 31.716 127.739 28.1872 131.415 23.9755C134.25 20.7189 136.72 17.1951 138.667 13.31C139.195 12.2558 139.289 11.0532 139.981 9.7862V9.78125Z" fill="#FEFAD7"/>
<path d="M10.1719 112.334C11.4514 111.656 12.8297 111.379 14.0944 110.815C19.2915 108.489 24.1626 105.589 28.7471 102.263C35.5547 97.3136 41.9621 91.8695 47.9843 85.9602C54.0113 80.041 61.0363 75.6659 69.1234 73.1369C74.2267 71.5432 79.4682 70.7761 84.8333 71.0186C86.4043 71.0879 87.2738 72.3351 88.3853 73.1468C91.3988 75.3442 94.3877 77.5812 97.332 79.8678C102.129 83.5895 107.049 87.143 111.822 90.8896C114.287 92.8247 116.851 94.6707 119.375 96.5415C125.857 101.352 132.279 106.252 138.716 111.127C139.862 111.993 139.833 112.067 138.657 112.963C127.492 121.471 116.337 129.978 105.177 138.486C99.2982 142.965 93.4095 147.439 87.5306 151.918C87.1157 152.235 86.6809 152.442 86.1326 152.462C79.6658 152.71 73.4412 151.562 67.4289 149.191C61.1598 146.721 55.8688 142.663 50.4494 138.803C44.7929 134.769 39.991 129.711 34.4777 125.509C32.1064 123.703 29.8092 121.802 27.3193 120.134C25.6347 119.006 24.1082 117.615 22.3149 116.65C18.8666 114.789 15.2257 113.433 11.3476 112.765C10.9821 112.701 10.5622 112.71 10.1818 112.339L10.1719 112.334Z" fill="#FEFAD7"/>
<path d="M88.0073 153.793C87.7652 152.932 88.4371 152.358 89.1781 151.794C93.3625 148.611 97.537 145.414 101.721 142.232C107.363 137.941 113.005 133.66 118.656 129.379C121.275 127.394 123.972 125.513 126.511 123.435C130.804 119.921 135.384 116.783 139.702 113.309C140.364 112.774 140.808 112.71 141.515 113.249C149.883 119.604 158.282 125.929 166.665 132.259C171.344 135.793 176.022 139.332 180.705 142.86C185.448 146.439 190.196 150.012 194.933 153.59C195.403 153.946 195.575 154.441 195.645 155.02C196.015 157.935 194.879 160.405 193.362 162.746C190.408 167.289 186.337 170.69 181.95 173.743C174.584 178.871 167.179 183.943 159.803 189.056C154.379 192.817 149.819 197.465 145.976 202.825C144.138 205.388 142.621 208.13 141.534 211.1C141.441 211.357 141.396 211.713 141.085 211.728C140.734 211.748 140.754 211.357 140.64 211.119C138.363 206.175 135.606 201.548 132.133 197.331C126.902 190.981 120.499 185.978 113.963 181.108C109.448 177.742 104.498 175.005 100.022 171.59C95.8178 168.378 91.9792 164.77 89.5634 159.915C88.6396 158.054 88.1654 156.075 87.9974 153.788L88.0073 153.793Z" fill="#FEFAD7"/>
<path d="M79.6804 18.2959C87.3229 18.6225 94.9506 18.3206 102.578 17.8554C109.297 17.4446 115.991 16.7567 122.626 15.5936C127.235 14.7869 131.824 13.8614 136.122 11.8867C136.409 11.753 136.676 11.5848 136.967 11.466C137.422 11.2829 137.886 10.585 138.291 10.9612C138.79 11.4264 138.237 12.0599 138 12.5647C135.663 17.603 132.195 21.8197 128.366 25.7642C124.429 29.8225 119.938 33.2226 115.438 36.6128C109.934 40.7552 104.391 44.8432 98.9126 49.0253C94.1749 52.6431 90.0746 56.8549 87.3822 62.2742C86.3892 64.2737 85.7865 66.3821 85.6284 68.6092C85.6086 68.916 85.6778 69.3268 85.3814 69.4802C84.9812 69.6881 84.7737 69.2476 84.507 69.0497C81.1871 66.5503 77.8624 64.051 74.5524 61.5467C71.0646 58.9088 67.5867 56.2511 64.1039 53.6082C60.5568 50.9258 57.0048 48.2532 53.4577 45.5708C48.641 41.9282 43.8292 38.2707 39.0076 34.6331C36.3745 32.6435 33.7512 30.6292 31.0637 28.7089C30.1696 28.0705 29.9818 27.4271 30.2585 26.4076C30.8513 24.2101 32.4371 22.9233 34.3243 22.0226C40.5638 19.0432 47.3467 18.7512 54.0604 18.286C62.5922 17.697 71.1387 17.9593 79.6754 18.3008L79.6804 18.2959Z" fill="#FEFAD7"/>
<path d="M87.0865 153.517C87.2397 158.545 89.5468 162.529 92.6887 166.152C95.4553 169.339 98.6417 171.992 102.144 174.348C104.733 176.09 107.396 177.718 109.95 179.525C111.946 180.94 113.917 182.405 115.913 183.82C118.995 186.008 121.88 188.478 124.642 191.081C126.732 193.051 128.935 194.912 130.832 197.084C133.856 200.554 136.177 204.478 138.267 208.552C138.623 209.249 139.31 209.833 139.23 210.863C138.084 210.219 137.338 209.23 136.301 208.606C131.988 206.018 127.226 204.894 122.32 204.226C114.786 203.196 107.223 203.761 99.6693 203.766C86.3554 203.781 73.0465 204.013 59.7375 203.751C52.9694 203.617 46.1915 203.459 39.5173 202.127C37.2398 201.672 34.9821 201.113 32.9221 199.97C32.265 199.603 31.6327 199.203 31.1535 198.609C30.2988 197.545 30.363 196.629 31.44 195.802C37.6252 191.061 43.8251 186.335 50.0251 181.608C55.2716 177.604 60.523 173.61 65.7695 169.601C72.7451 164.276 79.7207 158.941 86.6963 153.616C86.7506 153.576 86.8395 153.576 87.0915 153.512L87.0865 153.517Z" fill="#FEFAD7"/>
<path d="M10.8097 113.577C12.8105 113.968 14.7422 114.542 16.6688 115.181C21.6189 116.814 25.6007 120.006 29.6863 123.08C33.2284 125.747 36.6816 128.514 40.0064 131.439C43.4053 134.423 46.7597 137.467 50.4549 140.07C54.338 142.802 58.1419 145.673 62.3559 147.895C69.1783 151.498 76.4503 153.364 84.1719 153.408C84.4288 153.408 84.7202 153.304 85.0512 153.68C84.241 154.334 83.4506 154.997 82.6305 155.616C75.077 161.362 67.5184 167.093 59.9649 172.834C50.6278 179.936 41.2661 187.013 31.9785 194.175C30.5706 195.263 29.296 195.397 27.7448 194.803C24.0446 193.393 21.7029 190.646 20.1714 187.112C18.2201 182.608 17.7162 177.842 17.7458 172.997C17.81 162.233 17.9335 151.468 17.81 140.704C17.7458 134.898 17.5087 129.113 15.9723 123.466C15.4091 121.382 14.6631 119.373 13.6306 117.472C13.0081 116.324 12.4005 115.191 11.2692 114.438C11.0321 114.28 10.7307 114.082 10.8097 113.572V113.577Z" fill="#FEFAD7"/>
<path d="M250.18 27.5435C250.289 28.1721 249.77 28.3503 249.409 28.6274C239.736 36.0017 230.059 43.376 220.386 50.7502C213.04 56.3478 205.693 61.9403 198.357 67.5576C197.572 68.1565 197.463 67.7111 197.34 67.0677C196.653 63.4944 195.181 60.2477 193.195 57.2238C190.986 53.8633 188.091 51.1808 185.004 48.6567C177.954 42.8959 170.574 37.5953 163.069 32.4531C155.333 27.1526 148.283 21.1195 142.987 13.2503C142.795 12.9633 142.414 12.6713 142.721 12.3397C143.017 12.018 143.264 12.4585 143.511 12.597C148.002 15.1657 152.952 16.2792 157.986 17.0265C170.875 18.9369 183.818 18.536 196.752 17.5759C208.781 16.6801 220.741 17.0414 232.662 18.833C236.669 19.4368 240.685 20.0208 244.538 21.3175C247.27 22.2331 249.202 24.0197 250.012 26.8705C250.076 27.0981 250.121 27.3258 250.175 27.5534L250.18 27.5435Z" fill="#FEFAD7"/>
<path d="M196.658 154.977C199.607 157.179 202.472 159.302 205.323 161.45C210.663 165.479 216.028 169.478 221.319 173.571C226.986 177.951 232.81 182.118 238.422 186.577C242.019 189.438 245.773 192.095 249.503 194.778C250.422 195.441 250.54 196.134 250.2 197.109C249.646 198.703 248.579 199.885 247.231 200.806C244.286 202.815 240.902 203.538 237.459 204.033C231.54 204.889 225.587 204.538 219.649 204.453C203.47 204.221 187.291 203.879 171.112 204.137C166.275 204.211 161.419 204.285 156.622 204.998C152.304 205.636 148.051 206.552 144.474 209.319C143.985 209.7 143.545 210.145 142.987 210.645C142.893 209.611 143.447 208.913 143.822 208.19C146.999 202.098 151.469 197.035 156.686 192.674C162.422 187.879 168.834 184.008 174.931 179.703C180.073 176.075 185.508 172.848 189.998 168.354C192.72 165.632 195.037 162.658 196.208 158.921C196.598 157.674 196.574 156.382 196.658 154.977Z" fill="#FEFAD7"/>
<path d="M9.78619 111.408C10.7347 110.265 11.9648 109.399 12.8294 108.162C16.4802 102.96 17.8881 97.1054 17.8437 90.8546C17.7943 83.0448 17.6609 75.2399 17.5423 67.4351C17.4534 61.5208 17.3694 55.6065 17.5818 49.6923C17.7597 44.7975 18.1598 39.9275 20.0865 35.3297C20.9362 33.3006 22.1466 31.5585 23.846 30.143C25.9703 28.3762 28.9246 28.2079 31.0983 29.8411C35.1838 32.9096 39.3089 35.9385 43.3154 39.1109C46.2943 41.4667 49.382 43.6642 52.4153 45.9457C60.9915 52.3896 69.5282 58.8829 78.0797 65.3614C79.7099 66.5937 81.3402 67.831 82.9853 69.0485C83.2669 69.2564 83.7214 69.3751 83.5979 69.8008C83.4744 70.2412 82.9952 70.068 82.6691 70.0779C77.3189 70.2016 72.1069 71.0925 67.063 72.9039C59.6181 75.5715 53.1168 79.7437 47.4108 85.2224C38.9285 93.3687 29.9818 100.941 19.7852 106.905C16.6234 108.756 13.3036 110.24 9.78125 111.423L9.78619 111.408Z" fill="#FEFAD7"/>
<path d="M198.496 154.803C199.993 154.754 201.504 154.833 203.011 154.625C208.114 153.922 212.926 152.408 217.609 150.216C225.558 146.499 232.4 141.302 238.808 135.408C243.743 130.869 248.822 126.499 254.137 122.396C256.158 120.832 258.174 119.239 260.308 117.878C264.156 115.418 268.182 113.24 273.049 112.072C271.68 113.517 270.475 114.636 269.63 116.066C267.219 120.149 266.078 124.643 265.307 129.251C263.776 138.437 263.608 147.696 263.988 156.976C264.25 163.326 264.541 169.671 263.702 175.996C263.104 180.509 262.22 184.959 259.972 188.992C258.411 191.799 256.341 194.031 252.981 194.684C251.761 194.921 250.773 194.639 249.795 193.892C243.531 189.116 237.257 184.355 230.968 179.609C220.312 171.571 209.646 163.549 198.985 155.516C198.782 155.363 198.456 155.303 198.491 154.799L198.496 154.803Z" fill="#FEFAD7"/>
<path d="M263.785 67.3313C263.514 76.8931 263.761 86.4252 265.762 95.8237C266.661 100.045 267.906 104.153 270.554 107.672C270.973 108.231 271.532 108.687 272.021 109.201C272.223 109.414 272.604 109.627 272.352 109.964C272.169 110.211 271.843 110.003 271.586 109.924C268.33 108.934 265.243 107.563 262.363 105.747C258.914 103.574 255.683 101.129 252.561 98.4864C249.533 95.9178 246.924 92.9235 243.891 90.3846C240.809 87.8061 237.691 85.282 234.421 82.9262C231.21 80.6149 227.905 78.4818 224.521 76.4576C216.947 71.9242 208.875 68.9745 199.963 68.6627C199.602 68.6478 199.044 68.8755 198.925 68.4004C198.807 67.945 199.41 67.8609 199.701 67.6382C207.586 61.6398 215.485 55.6562 223.37 49.6578C231.694 43.3278 240.013 36.983 248.332 30.648C248.426 30.5787 248.51 30.4847 248.614 30.4303C249.661 29.8958 250.304 28.6238 251.746 28.8069C253.762 29.0593 255.545 29.8562 257.072 31.1528C259.28 33.0236 260.52 35.5477 261.389 38.2302C263.158 43.6842 263.598 49.351 263.874 55.0277C264.072 59.1256 264.018 63.2285 263.781 67.3264L263.785 67.3313Z" fill="#FEFAD7"/>
<path d="M196.746 115.487C195.772 115.546 195.649 114.764 195.303 114.229C195.076 113.878 195.036 113.254 194.572 113.239C194.053 113.23 193.969 113.873 193.727 114.249C193.421 114.724 193.352 115.412 192.611 115.487C192.344 115.511 192.023 115.61 191.83 115.378C191.632 115.13 191.82 114.853 191.944 114.615C192.304 113.918 192.616 113.185 193.07 112.551C193.52 111.928 193.391 111.388 193.08 110.814C192.764 110.23 192.408 109.671 192.102 109.081C191.944 108.78 191.371 108.463 191.865 108.116C192.235 107.854 192.813 107.864 193.159 108.28C193.559 108.76 193.89 109.299 194.216 109.834C194.572 110.413 194.819 110.329 195.101 109.774C195.348 109.289 195.59 108.78 195.94 108.369C196.271 107.983 196.835 107.908 197.23 108.215C197.605 108.507 197.21 108.883 197.007 109.111C195.348 110.987 195.817 112.789 197.141 114.586C197.294 114.794 197.561 115.011 197.408 115.313C197.25 115.615 196.923 115.472 196.751 115.497L196.746 115.487Z" fill="#DB2F4F"/>
<path d="M159.23 112.893C159.211 113.324 159.23 113.764 159.161 114.19C158.998 115.205 158.435 115.858 157.358 115.858C156.316 115.858 155.599 115.294 155.476 114.264C155.362 113.334 155.362 112.369 155.476 111.438C155.609 110.349 156.424 109.75 157.452 109.829C158.529 109.913 159.067 110.557 159.161 111.591C159.201 112.022 159.166 112.458 159.166 112.888C159.186 112.888 159.206 112.888 159.225 112.888L159.23 112.893Z" fill="#221E15"/>
<path d="M150.513 111.576C151.175 110.25 152.242 110.319 153.047 109.958C153.358 109.819 153.388 110.161 153.383 110.398C153.368 112.047 153.348 113.69 153.339 115.338C153.339 115.774 153.151 115.987 152.701 115.972C152.271 115.957 152.202 115.7 152.197 115.348C152.192 114.447 152.113 113.542 152.168 112.646C152.232 111.606 152.094 110.898 150.508 111.576H150.513Z" fill="#4B4D42"/>
<path d="M142.425 100.229C142.425 100.976 142.42 101.719 142.425 102.466C142.425 102.847 142.405 103.174 141.891 103.184C141.378 103.194 141.353 102.892 141.348 102.496C141.343 101.437 141.294 100.377 141.289 99.3231C141.289 98.6945 141.141 98.3084 140.404 98.6103C140.232 98.6796 140.004 98.7539 139.891 98.5361C139.742 98.249 139.975 98.0906 140.177 97.9965C140.706 97.749 141.249 97.5312 141.793 97.3085C142.242 97.1254 142.44 97.259 142.42 97.7688C142.395 98.5905 142.415 99.4172 142.415 100.239C142.415 100.239 142.42 100.239 142.425 100.239V100.229Z" fill="#4B4D42"/>
<path d="M143.166 71.1288C143.166 72.1089 143.166 73.0889 143.166 74.074C143.166 74.465 143.112 74.7719 142.618 74.7867C142.139 74.8016 141.882 74.6333 141.887 74.1185C141.902 72.1188 141.907 70.114 141.916 68.1143C141.916 67.7084 142.04 67.4362 142.509 67.4263C143.063 67.4114 143.151 67.748 143.151 68.1885C143.151 69.1686 143.151 70.1536 143.151 71.1337C143.156 71.1337 143.161 71.1337 143.166 71.1337V71.1288Z" fill="#DB2F4F"/>
<path d="M96.3377 117.397C95.8684 117.452 95.5868 117.224 95.4386 116.803C94.7272 114.759 94.0158 112.72 93.3143 110.675C93.2155 110.388 93.1019 109.963 93.5762 109.948C94.1492 109.928 94.7717 109.948 94.9841 110.715C95.3102 111.888 95.6807 113.051 96.0314 114.215C96.1055 114.467 96.0957 114.828 96.4612 114.804C96.7379 114.784 96.7329 114.462 96.8021 114.239C97.138 113.106 97.4888 111.982 97.7951 110.844C97.9433 110.284 98.215 109.928 98.8227 109.903C99.3611 109.878 99.6674 110.007 99.4451 110.656C98.7387 112.66 98.047 114.665 97.3752 116.68C97.1973 117.219 96.8812 117.452 96.3328 117.402L96.3377 117.397Z" fill="#DB2F4F"/>
<path d="M128.266 112.38C128.651 111.439 129.323 110.682 129.832 109.821C130.113 109.345 130.494 109.296 130.909 109.345C131.452 109.41 131.24 109.875 131.245 110.192C131.259 110.9 131.245 111.607 131.254 112.315C131.259 112.612 131.17 112.974 131.531 113.147C132.134 113.439 132.124 113.696 131.536 114.003C131.141 114.211 131.245 114.602 131.259 114.949C131.274 115.29 131.111 115.458 130.785 115.493C130.523 115.523 130.247 115.449 130.286 115.157C130.503 113.642 129.382 114.058 128.611 113.954C128.127 113.884 127.312 114.068 127.91 113.097C128.167 112.929 128.443 112.82 128.755 112.825C129.55 112.875 130.148 112.701 130.005 111.711C130 111.721 129.921 111.637 129.921 111.637C129.921 111.637 129.807 111.637 129.807 111.652C129.451 111.989 129.263 112.523 128.69 112.597C128.513 112.597 128.359 112.543 128.261 112.385L128.266 112.38Z" fill="#221E15"/>
<path d="M90.6539 113.666C90.6539 112.721 90.6638 111.776 90.6539 110.83C90.6489 110.345 90.7132 109.974 91.3406 109.989C91.884 109.999 92.1112 110.221 92.1063 110.776C92.0964 112.746 92.1063 114.721 92.1211 116.691C92.1211 117.201 91.9136 117.389 91.4147 117.394C90.8713 117.394 90.6193 117.196 90.6292 116.631C90.6489 115.646 90.6341 114.661 90.6341 113.676H90.6539V113.666Z" fill="#DB2F4F"/>
<path d="M128.975 113.102C128.624 113.102 128.273 113.102 127.922 113.097C127.912 112.795 128.051 112.567 128.273 112.379C128.51 112.399 128.742 112.423 128.98 112.443C129.133 112.661 129.143 112.884 128.98 113.102H128.975Z" fill="#4B4D42"/>
<path d="M137.933 156.328C138.264 155.229 138.644 154.17 138.881 153.076C138.955 152.74 139.044 152.398 139.153 152.081C139.395 151.388 140.003 151.512 140.541 151.626C141.228 151.774 140.848 152.235 140.739 152.547C140.067 154.477 139.361 156.393 138.684 158.323C138.526 158.778 138.289 159.066 137.775 159.095C137.202 159.13 136.91 158.838 136.737 158.333C136.031 156.328 135.319 154.324 134.613 152.319C134.504 152.012 134.401 151.636 134.855 151.571C135.379 151.497 135.981 151.378 136.219 152.116C136.555 153.165 136.895 154.215 137.246 155.254C137.365 155.611 137.36 156.046 137.933 156.318V156.328Z" fill="#DB2F4F"/>
<path d="M146.363 155.378C146.363 156.359 146.348 157.344 146.368 158.324C146.378 158.789 146.264 159.076 145.726 159.071C145.227 159.071 144.886 158.942 144.891 158.353C144.905 156.349 144.92 154.349 144.915 152.344C144.915 151.661 145.38 151.607 145.864 151.587C146.511 151.562 146.358 152.077 146.368 152.428C146.388 153.408 146.378 154.393 146.378 155.373C146.373 155.373 146.368 155.373 146.363 155.373V155.378Z" fill="#DB2F4F"/>
<path d="M142.321 121.778C141.53 121.525 140.784 121.639 140.048 121.585C139.757 121.565 139.362 121.515 139.401 121.075C139.431 120.718 139.747 120.703 140.034 120.703C141.056 120.694 142.074 120.699 143.096 120.669C143.768 120.649 143.808 120.966 143.595 121.476C142.909 123.104 142.232 124.738 141.54 126.361C141.338 126.836 140.859 127.005 140.468 126.822C140.088 126.643 140.35 126.233 140.458 125.896C140.923 124.465 141.916 123.268 142.326 121.783L142.321 121.778Z" fill="#4B4D42"/>
<path d="M143.191 155.329C143.191 156.309 143.191 157.289 143.191 158.269C143.191 158.71 143.073 159.041 142.544 159.051C142.045 159.056 141.843 158.799 141.848 158.323C141.848 156.324 141.848 154.324 141.848 152.329C141.848 151.839 142.06 151.621 142.559 151.631C143.088 151.641 143.211 151.943 143.206 152.393C143.196 153.374 143.206 154.354 143.206 155.334H143.196L143.191 155.329Z" fill="#DB2F4F"/>
<path d="M80.921 59.1214C80.4368 58.9828 79.4636 59.5372 79.1573 58.7996C78.9103 58.2056 79.8094 57.7403 80.1898 57.2058C80.6592 56.5474 81.2322 55.9534 81.5385 55.1813C81.7015 54.7754 81.8843 54.2804 81.4545 54.0329C81.0494 53.8052 80.4912 53.8596 80.2491 54.3992C80.0564 54.8348 79.76 55.0872 79.3549 54.8298C78.8362 54.5031 79.2858 54.1319 79.4735 53.8398C80.0367 52.9538 81.2619 52.6964 82.1807 53.2359C83.0255 53.7309 83.2231 54.6863 82.6402 55.7158C82.2697 56.3643 81.8102 56.9533 81.2668 57.4731C81.1334 57.5968 80.9605 57.8047 80.9852 57.9482C81.0346 58.2502 81.3458 58.171 81.5681 58.1809C81.9189 58.1957 82.2746 58.1908 82.6303 58.2007C82.902 58.2106 83.2429 58.1809 83.2528 58.562C83.2626 58.9333 83.0008 59.1164 82.6352 59.1164C82.1264 59.1164 81.6126 59.1164 80.9309 59.1164L80.921 59.1214Z" fill="#4B4D42"/>
<path d="M78.8514 35.6665C78.8514 34.6865 78.8514 33.7014 78.8514 32.7213C78.8514 32.2412 78.9453 31.8799 79.5578 31.8848C80.0815 31.8898 80.3582 32.0531 80.3532 32.6273C80.3335 34.632 80.3186 36.6367 80.3285 38.6365C80.3285 39.275 79.9679 39.3047 79.4887 39.2998C79.0045 39.2998 78.7822 39.1414 78.802 38.6117C78.8366 37.6316 78.8119 36.6466 78.8119 35.6665C78.8217 35.6665 78.8366 35.6665 78.8464 35.6665H78.8514Z" fill="#DB2F4F"/>
<path d="M83.3564 35.6373C83.3564 36.6223 83.3366 37.6073 83.3613 38.5874C83.3761 39.1022 83.1489 39.2853 82.6647 39.2903C82.1806 39.2903 81.9435 39.117 81.9484 38.6022C81.9534 36.6322 81.9435 34.6671 81.9336 32.697C81.9336 32.1921 82.0966 31.8902 82.6746 31.8704C83.302 31.8456 83.3761 32.1921 83.3712 32.6822C83.3613 33.6672 83.3712 34.6522 83.3712 35.6323H83.3663L83.3564 35.6373Z" fill="#DB2F4F"/>
<path d="M81.6494 186.336C82.0841 184.945 82.504 183.603 82.9289 182.257C83.0573 181.851 83.1018 181.386 83.6946 181.356C84.3517 181.321 84.9198 181.292 84.5592 182.272C83.828 184.267 83.1463 186.276 82.4596 188.281C82.2817 188.796 81.9211 188.885 81.4518 188.89C80.9676 188.895 80.6515 188.771 80.4785 188.251C79.8511 186.346 79.1595 184.46 78.5568 182.549C78.4531 182.217 77.7664 181.653 78.6111 181.425C79.204 181.267 79.8462 181.302 80.0586 182.188C80.3402 183.331 80.7404 184.445 81.101 185.568C81.1801 185.816 81.1455 186.133 81.6444 186.336H81.6494Z" fill="#DB2F4F"/>
<path d="M82.7328 162.901C84.8867 162.688 85.6821 163.425 85.4549 165.292C85.3462 166.188 84.8126 166.732 83.9975 166.955C83.2021 167.168 82.5056 166.851 82.0165 166.217C80.7715 164.618 81.7991 161.589 83.7307 161.079C84.0765 160.99 84.5162 160.832 84.6546 161.252C84.8126 161.733 84.3186 161.807 83.9926 161.856C83.3997 161.95 82.9551 162.188 82.7378 162.896L82.7328 162.901Z" fill="#221E15"/>
<path d="M87.1683 185.146C87.1683 186.131 87.1387 187.116 87.1782 188.096C87.2029 188.661 86.9954 188.869 86.4421 188.883C85.8394 188.898 85.7258 188.581 85.7258 188.072C85.7356 186.102 85.7258 184.136 85.7109 182.166C85.7109 181.662 85.7949 181.345 86.4124 181.35C87.0201 181.35 87.2473 181.582 87.2276 182.191C87.193 183.176 87.2177 184.161 87.2177 185.141C87.1979 185.141 87.1831 185.141 87.1634 185.141L87.1683 185.146Z" fill="#DB2F4F"/>
<path d="M39.4752 161.08C40.1223 159.916 40.2607 158.941 40.5768 158.031C40.7843 157.437 40.9128 156.813 41.1647 156.239C41.4266 155.635 42.0342 155.699 42.4986 155.853C43.0074 156.021 42.6517 156.471 42.5579 156.758C41.9107 158.699 41.2092 160.624 40.5768 162.57C40.3792 163.178 40.0186 163.337 39.4455 163.357C38.8428 163.376 38.6502 163.07 38.4822 162.555C37.8647 160.644 37.1829 158.758 36.5654 156.848C36.4666 156.541 36.0417 156.006 36.6642 155.882C37.1582 155.783 37.8696 155.605 38.1067 156.461C38.5069 157.897 38.9515 159.318 39.4752 161.085V161.08Z" fill="#DB2F4F"/>
<path d="M68.8966 156.713C70.769 156.802 71.4507 157.47 71.2729 159.03C71.1741 159.891 70.764 160.5 69.9094 160.752C69.0102 161.024 68.2939 160.678 67.6912 160.044C67.4343 159.777 67.2268 159.401 67.6072 159.134C67.9086 158.921 68.2198 159.054 68.4866 159.406C69.2078 160.341 69.6574 160.287 70.2453 159.277C70.2255 159.178 70.2354 159.084 70.2848 158.995C70.27 158.733 70.2601 158.47 70.2453 158.208C70.2947 158.064 70.191 157.97 70.1267 157.866C69.6821 157.421 69.1387 157.565 68.615 157.609C68.5953 157.718 68.5459 157.738 68.4619 157.664C67.8641 157.995 67.5084 157.97 67.5529 157.134C67.6764 154.961 68.5607 154.298 70.6899 154.807C70.9369 154.867 71.1592 154.921 71.1296 155.233C71.1049 155.505 70.9122 155.649 70.6504 155.659C70.2206 155.674 69.7859 155.693 69.3561 155.654C68.7138 155.594 68.531 155.946 68.5212 156.49C68.62 156.609 68.7435 156.688 68.8966 156.718V156.713Z" fill="#221E15"/>
<path d="M68.902 156.713C68.823 156.861 68.7044 156.96 68.5463 156.861C68.403 156.767 68.3882 156.624 68.5216 156.49C68.6451 156.564 68.7736 156.639 68.8971 156.718L68.902 156.713Z" fill="#4B4D42"/>
<path d="M68.4648 157.663L68.5294 157.59L68.6238 157.609C68.6039 157.717 68.5542 157.752 68.4648 157.663Z" fill="#4B4D42"/>
<path d="M70.125 157.867C70.2702 157.941 70.3052 158.06 70.2451 158.209C70.2051 158.095 70.165 157.981 70.125 157.867Z" fill="#4B4D42"/>
<path d="M70.2704 158.994C70.2554 159.088 70.2454 159.182 70.2304 159.276C70.2203 159.207 70.1953 159.143 70.1953 159.073C70.1953 159.049 70.2404 159.019 70.2654 158.994H70.2704Z" fill="#4B4D42"/>
<path d="M199.253 28.0308C200.049 27.9665 200.395 28.511 200.706 29.1446C200.903 29.5504 201.007 30.1692 201.551 30.1692C202.069 30.1692 202.03 29.5356 202.242 29.1842C202.43 28.8822 202.583 28.5555 202.815 28.2932C203.21 27.8477 203.843 27.8378 204.223 28.0803C204.747 28.4169 204.085 28.7139 203.942 29.006C203.616 29.6742 203.25 30.3226 202.84 30.9463C202.509 31.4463 202.543 31.8719 202.85 32.362C203.324 33.1292 203.729 33.941 204.218 34.6983C204.643 35.3567 204.371 35.52 203.744 35.5398C202.954 35.5646 202.573 35.0894 202.232 34.4508C202.035 34.0747 201.886 33.4906 201.299 33.5351C200.76 33.5747 200.76 34.134 200.558 34.4954C200.424 34.733 200.33 35.0151 200.143 35.2032C199.698 35.6438 199.051 35.6834 198.626 35.3913C198.201 35.0993 198.754 34.733 198.917 34.4211C199.318 33.6638 199.737 32.9164 200.152 32.1689C200.399 31.7235 200.217 31.3324 200.004 30.9513C199.599 30.2335 199.224 29.496 198.774 28.803C198.364 28.1694 198.527 27.9615 199.253 28.0308Z" fill="#DB2F4F"/>
<path d="M202.518 57.2161C202 56.9834 201.066 57.6219 200.794 56.8795C200.567 56.2508 201.397 55.7806 201.822 55.2856C202.321 54.6966 202.869 54.1422 203.304 53.5036C203.59 53.0829 203.768 52.4988 203.2 52.1474C202.736 51.8652 202.212 51.89 201.846 52.4097C201.604 52.7562 201.313 53.3056 200.888 52.875C200.493 52.4741 200.947 51.9989 201.273 51.6722C201.945 50.994 203.269 50.9346 203.986 51.5336C204.82 52.2315 204.633 53.0631 204.223 53.8848C203.902 54.5283 203.393 55.0233 202.864 55.4984C202.691 55.6519 202.434 55.7905 202.503 56.0578C202.597 56.4043 202.948 56.2756 203.19 56.3597C203.719 56.5429 204.741 55.9736 204.712 56.8102C204.687 57.4883 203.65 57.0775 203.072 57.1913C202.918 57.221 202.76 57.2111 202.523 57.221L202.518 57.2161Z" fill="#221E15"/>
<path d="M205.431 31.7081C205.431 30.7627 205.446 29.8173 205.426 28.8718C205.411 28.2976 205.589 28.0007 206.221 27.9759C206.878 27.9512 207.012 28.2828 207.031 28.8372C207.11 30.8468 207.061 32.8565 207.002 34.8662C206.982 35.5195 206.621 35.5196 206.157 35.5344C205.619 35.5493 205.372 35.3711 205.396 34.782C205.436 33.7574 205.406 32.7328 205.406 31.7081C205.411 31.7081 205.421 31.7081 205.426 31.7081H205.431Z" fill="#DB2F4F"/>
<path d="M210.04 31.7032C210.04 32.7278 210.02 33.7524 210.049 34.777C210.064 35.3661 209.783 35.5245 209.259 35.5146C208.75 35.5047 208.577 35.2819 208.582 34.7869C208.607 32.7773 208.612 30.7676 208.602 28.758C208.602 28.1689 208.888 28.0254 209.407 28.0254C209.926 28.0254 210.089 28.263 210.079 28.7481C210.059 29.7331 210.074 30.7181 210.074 31.7032C210.064 31.7032 210.059 31.7032 210.049 31.7032H210.04Z" fill="#DB2F4F"/>
<path d="M198.711 54.2123C198.711 54.9548 198.711 55.7022 198.711 56.4447C198.711 56.8357 198.78 57.2614 198.173 57.2713C197.585 57.2763 197.599 56.9001 197.599 56.4793C197.599 55.4597 197.55 54.44 197.555 53.4203C197.555 52.8511 197.575 52.3462 196.755 52.6481C196.547 52.7224 196.266 52.8412 196.152 52.5392C196.053 52.267 196.29 52.1036 196.503 52.0096C197.105 51.7423 197.713 51.475 198.336 51.2622C198.77 51.1137 198.741 51.4601 198.741 51.7423C198.741 52.564 198.741 53.3857 198.741 54.2123C198.731 54.2123 198.721 54.2123 198.711 54.2123Z" fill="#4B4D42"/>
<path d="M196.647 183.741C197.215 183.647 197.472 183.959 197.62 184.494C197.937 185.627 198.302 186.751 198.638 187.879C198.707 188.107 198.762 188.414 198.999 188.444C199.359 188.488 199.379 188.107 199.458 187.864C199.819 186.741 200.204 185.627 200.5 184.484C200.708 183.692 201.242 183.603 201.849 183.746C202.724 183.954 202.096 184.499 201.987 184.835C201.375 186.701 200.708 188.548 200.066 190.409C199.903 190.879 199.725 191.275 199.117 191.27C198.515 191.265 198.203 190.993 198.011 190.429C197.354 188.493 196.687 186.558 195.96 184.647C195.669 183.88 195.985 183.731 196.642 183.746L196.647 183.741Z" fill="#DB2F4F"/>
<path d="M196.94 165.766C196.94 165.607 196.896 165.459 196.945 165.375C197.419 164.617 197.301 163.9 197.034 163.078C196.807 162.365 197.331 161.761 197.997 161.519C198.768 161.237 199.593 161.321 200.201 161.92C200.705 162.42 200.887 163.103 200.369 163.721C199.959 164.206 200.305 164.489 200.517 164.855C200.917 165.538 200.887 166.241 200.374 166.825C199.736 167.543 198.877 167.671 197.997 167.36C197.261 167.102 196.846 166.558 196.935 165.771L196.94 165.766Z" fill="#221E15"/>
<path d="M210.817 187.508C210.817 188.493 210.807 189.478 210.817 190.458C210.822 190.968 210.689 191.27 210.091 191.27C209.508 191.27 209.236 191.106 209.246 190.463C209.281 188.493 209.281 186.528 209.261 184.558C209.256 183.934 209.533 183.736 210.111 183.721C210.743 183.706 210.803 184.068 210.798 184.553C210.783 185.538 210.798 186.523 210.798 187.508C210.803 187.508 210.807 187.508 210.812 187.508H210.817Z" fill="#DB2F4F"/>
<path d="M207.68 187.581C207.68 188.566 207.68 189.547 207.68 190.532C207.68 191.002 207.517 191.264 206.993 191.259C206.464 191.259 206.178 191.071 206.188 190.507C206.217 188.502 206.247 186.492 206.247 184.488C206.247 183.889 206.553 183.76 207.057 183.75C207.611 183.74 207.69 184.052 207.685 184.508C207.665 185.527 207.68 186.552 207.68 187.577V187.581Z" fill="#DB2F4F"/>
<path d="M204.576 187.462C204.576 188.482 204.566 189.502 204.581 190.521C204.591 191.007 204.413 191.249 203.904 191.249C203.41 191.249 203.069 191.15 203.074 190.546C203.094 188.507 203.094 186.467 203.084 184.428C203.084 183.913 203.311 183.725 203.796 183.755C204.22 183.785 204.576 183.859 204.571 184.403C204.561 185.423 204.571 186.443 204.571 187.462C204.571 187.462 204.571 187.462 204.576 187.462Z" fill="#DB2F4F"/>
<path d="M68.6736 64.267C68.2833 64.4254 67.8041 64.3759 67.5127 64.7719C67.4089 64.9155 67.2508 64.9402 67.1076 64.8264C66.9198 64.6779 66.9198 64.4403 67.0335 64.2967C67.6214 63.5641 68.3624 63.2473 69.3109 63.4998C70.0964 63.7126 70.9511 64.1631 70.5954 64.9798C70.1705 65.945 70.4126 66.6232 70.6991 67.4894C70.9461 68.2319 70.5707 68.9744 69.7456 69.2961C68.8366 69.6476 67.9573 69.4793 67.1817 68.9595C66.9594 68.811 66.8309 68.3853 67.0532 68.1032C67.2953 67.7963 67.5226 68.0834 67.7498 68.222C68.6786 68.7962 69.5135 68.717 69.721 67.9893C69.9235 67.2914 69.7209 66.7271 68.8762 66.6479C68.6045 66.6232 68.2339 66.7073 68.1747 66.3856C68.1055 65.9995 68.4958 65.9153 68.7922 65.8015C69.1973 65.648 69.6715 65.5144 69.7111 65.0046C69.7555 64.4947 69.2664 64.4304 68.9206 64.2621C68.8416 64.2621 68.7576 64.2621 68.6786 64.2621L68.6736 64.267Z" fill="#221E15"/>
<path d="M42.4094 66.8663C42.4094 67.8118 42.3945 68.7572 42.4143 69.6977C42.4242 70.1778 42.4094 70.5738 41.7622 70.5441C41.2533 70.5243 40.8137 70.4748 40.8285 69.7917C40.873 67.787 40.9075 65.7823 40.9372 63.7726C40.9471 63.2529 41.2533 63.1291 41.7078 63.1093C42.2167 63.0846 42.4192 63.2974 42.4143 63.7924C42.4044 64.8171 42.4143 65.8367 42.4143 66.8614C42.4143 66.8614 42.4143 66.8614 42.4094 66.8614V66.8663Z" fill="#DB2F4F"/>
<path d="M34.8767 66.8675C34.8767 65.8874 34.8866 64.9024 34.8767 63.9223C34.8718 63.4174 34.9904 63.1056 35.5931 63.1155C36.1513 63.1204 36.3539 63.3481 36.3539 63.8926C36.3391 65.8577 36.3292 67.8179 36.3539 69.783C36.3638 70.4512 36.013 70.5354 35.4696 70.5552C34.7928 70.575 34.8372 70.1493 34.8422 69.6988C34.8471 68.7583 34.8422 67.8129 34.8422 66.8724C34.852 66.8724 34.8669 66.8724 34.8767 66.8724V66.8675Z" fill="#DB2F4F"/>
<path d="M39.2472 66.8774C39.2472 67.8624 39.2176 68.8524 39.262 69.8374C39.2867 70.3621 39.1138 70.5452 38.605 70.5353C38.1258 70.5254 37.7701 70.4957 37.7898 69.8473C37.8491 67.8377 37.864 65.823 37.8837 63.8134C37.8887 63.2342 38.2196 63.0857 38.7285 63.1006C39.3016 63.1204 39.3114 63.5065 39.3065 63.9223C39.3016 64.9073 39.3065 65.8923 39.3065 66.8774C39.2867 66.8774 39.267 66.8774 39.2521 66.8774H39.2472Z" fill="#DB2F4F"/>
<path d="M68.668 64.2657C68.7524 64.1432 68.8319 64.1432 68.9113 64.2657C68.8319 64.2657 68.7474 64.2657 68.668 64.2657Z" fill="#4B4D42"/>
<path d="M247.924 164.261C247.435 164.316 247.034 164.083 246.773 163.559C246.58 163.172 246.333 162.816 246.096 162.455C245.809 162.029 245.552 161.905 245.29 162.499C245.103 162.93 244.831 163.316 244.604 163.732C244.209 164.459 243.463 164.45 242.974 164.153C242.445 163.836 243.161 163.465 243.28 163.098C243.305 163.024 243.349 162.955 243.388 162.89C244.304 161.257 244.296 159.62 243.364 157.98C243.181 157.653 242.608 157.218 243.097 156.906C243.532 156.629 244.189 156.762 244.579 157.257C244.796 157.53 244.925 157.876 245.132 158.158C245.35 158.455 245.374 159 245.888 158.94C246.303 158.891 246.328 158.44 246.476 158.129C246.723 157.589 247.005 157.059 247.612 156.842C247.874 156.748 248.176 156.733 248.398 156.926C248.689 157.178 248.487 157.455 248.319 157.648C246.644 159.564 246.768 161.44 248.373 163.336C248.739 163.766 248.991 164.291 247.929 164.261H247.924Z" fill="#DB2F4F"/>
<path d="M213.876 158.896C211.777 159.099 211.09 158.629 211.09 157.129C211.09 156.283 211.446 155.694 212.221 155.377C213.002 155.06 213.688 155.283 214.257 155.867C215.758 157.421 214.879 160.643 212.799 161.213C212.468 161.302 212.024 161.49 211.861 161.069C211.663 160.559 212.192 160.579 212.493 160.46C213.189 160.193 213.683 159.738 213.876 158.891V158.896Z" fill="#221E15"/>
<path d="M240.145 160.48C240.145 159.495 240.164 158.515 240.14 157.53C240.125 156.965 240.397 156.772 240.915 156.742C241.548 156.708 241.607 157.079 241.602 157.569C241.587 159.534 241.563 161.499 241.587 163.464C241.597 164.093 241.355 164.276 240.757 164.276C240.105 164.276 240.105 163.89 240.11 163.425C240.12 162.44 240.11 161.46 240.11 160.475C240.12 160.475 240.135 160.475 240.145 160.475V160.48Z" fill="#DB2F4F"/>
<path d="M240.725 61.1152C241.308 60.6845 241.506 60.1104 241.778 59.6005C241.995 59.1897 242.242 58.8729 242.741 58.8531C243.013 58.8432 243.344 58.7689 243.517 59.0016C243.709 59.259 243.477 59.5164 243.349 59.7589C243.329 59.7936 243.319 59.8332 243.294 59.8629C241.723 61.6646 241.911 63.4268 243.354 65.2088C243.546 65.4463 244.114 65.877 243.586 66.1591C243.111 66.4116 242.41 66.4809 241.97 65.9166C241.684 65.5503 241.491 65.1098 241.259 64.6989C241.111 64.4415 241.125 64.001 240.725 64.0208C240.384 64.0406 240.305 64.4415 240.118 64.689C239.683 65.2682 239.772 66.3027 238.65 66.2928C237.983 66.2878 237.544 66.1393 238.097 65.4711C239.831 63.402 239.713 61.4171 237.988 59.4223C237.633 59.0065 237.82 58.8184 238.319 58.764C239.016 58.6897 239.55 58.863 239.876 59.5362C240.128 60.0609 240.419 60.5658 240.715 61.1102L240.725 61.1152Z" fill="#DB2F4F"/>
<path d="M246.233 62.6016C246.233 63.542 246.213 64.4825 246.243 65.423C246.258 65.918 246.193 66.2496 245.586 66.2843C244.919 66.3239 244.795 65.9724 244.805 65.423C244.83 63.4628 244.855 61.5076 244.855 59.5475C244.855 59.0426 245.077 58.8446 245.551 58.8198C246.08 58.7951 246.238 59.0822 246.238 59.5425C246.238 60.5622 246.238 61.5819 246.238 62.6016H246.233Z" fill="#DB2F4F"/>
<path d="M216.493 62.5651C217.086 61.5751 218.054 61.6097 218.79 61.2484C219.082 61.1049 219.161 61.4018 219.161 61.6642C219.151 63.3175 219.141 64.9757 219.141 66.6289C219.141 67.02 218.993 67.2229 218.593 67.2081C218.143 67.1883 218.148 66.8863 218.148 66.5448C218.153 65.6786 218.133 64.8123 218.119 63.9461C218.105 62.9627 217.562 62.5024 216.488 62.5651H216.493Z" fill="#221E15"/>
<path d="M214.26 64.1094C214.26 64.8964 214.26 65.6834 214.26 66.4705C214.26 66.8318 214.309 67.1931 213.761 67.203C213.158 67.2129 213.198 66.8368 213.193 66.416C213.193 65.3914 213.138 64.3717 213.134 63.3471C213.134 62.7531 213.094 62.273 212.299 62.6194C212.076 62.7184 211.795 62.7828 211.671 62.5303C211.503 62.1839 211.829 62.0552 212.066 61.9314C212.724 61.5849 213.494 61.0404 214.117 61.283C214.561 61.4562 214.211 62.4264 214.27 63.0402C214.299 63.3916 214.275 63.748 214.275 64.1044H214.26V64.1094Z" fill="#4B4D42"/>
<path d="M158.228 112.825C158.198 113.334 158.198 113.844 158.139 114.349C158.079 114.849 157.773 115.106 157.249 115.087C156.775 115.067 156.518 114.819 156.498 114.359C156.459 113.419 156.405 112.478 156.434 111.543C156.449 110.949 156.834 110.612 157.452 110.652C158.074 110.691 158.193 111.132 158.193 111.647C158.193 112.038 158.193 112.434 158.193 112.825C158.203 112.825 158.213 112.825 158.228 112.825Z" fill="#FEFAD7"/>
<path d="M128.978 113.102C128.978 112.884 128.978 112.661 128.978 112.444C129.274 112.043 129.575 111.647 129.872 111.246C130.045 111.112 130.198 111.053 130.277 111.34C130.163 112.166 130.633 113.424 128.973 113.102H128.978Z" fill="#FEFAD7"/>
<path d="M130.28 111.344C130.147 111.314 130.013 111.279 129.875 111.25C129.929 111.086 130.033 110.967 130.201 111.047C130.26 111.076 130.255 111.24 130.275 111.344H130.28Z" fill="#4B4D42"/>
<path d="M82.582 164.499C82.5375 164.103 82.8784 163.736 83.6145 163.736C84.3852 163.736 84.5037 164.271 84.4642 164.85C84.4247 165.459 84.4247 166.216 83.5453 166.201C82.6956 166.187 82.661 165.479 82.5869 164.499H82.582Z" fill="#FEFAD7"/>
<path d="M199.658 165.573C199.643 166.177 199.5 166.677 198.754 166.692C198.102 166.707 197.963 166.256 197.953 165.756C197.944 165.142 198.171 164.682 198.887 164.642C199.569 164.608 199.633 165.068 199.658 165.573Z" fill="#FEFAD7"/>
<path d="M198.903 162.268C199.402 162.307 199.624 162.565 199.54 163.045C199.466 163.48 199.362 163.881 198.77 163.866C198.167 163.852 198.078 163.421 198.063 162.995C198.043 162.441 198.444 162.292 198.903 162.268Z" fill="#FEFAD7"/>
<path d="M213.891 157.106C213.767 157.64 213.782 158.219 212.957 158.175C212.196 158.135 212.087 157.675 212.068 157.086C212.043 156.403 212.399 156.061 213.051 156.081C213.688 156.106 213.876 156.556 213.891 157.106Z" fill="#FEFAD7"/>
</svg>
